<svg width="52" height="52" viewBox="0 0 52 52" fill="none" xmlns="http://www.w3.org/2000/svg">
<g clip-path="url(#clip0_250_4)">
<path d="M7.99691 10.7343H43.7969C44.1552 10.7343 44.4804 10.8804 44.7156 11.1156C44.9519 11.3526 45.0969 11.6789 45.0969 12.0343V39.6345C45.0969 39.9898 44.9502 40.3147 44.714 40.5516C44.4788 40.7868 44.1551 40.9345 43.7969 40.9345H7.99691C7.63868 40.9345 7.31343 40.7885 7.07816 40.5532C6.84294 40.318 6.6969 39.9928 6.6969 39.6345V12.0343C6.6969 11.676 6.84294 11.3508 7.07816 11.1156C7.31509 10.8794 7.64143 10.7343 7.99691 10.7343ZM43.4969 12.3344H8.29691V39.3344H43.4969V12.3344Z" fill="currentColor"/>
<path d="M10.2432 34.8687C9.93085 35.1811 9.93085 35.6876 10.2432 36C10.5556 36.3123 11.0621 36.3123 11.3745 36L21.2089 26.1656L28.6432 33.5999C28.9556 33.9123 29.4621 33.9123 29.7745 33.5999C30.0869 33.2876 30.0869 32.7811 29.7745 32.4687L21.779 24.4732C21.4666 24.1608 20.9555 24.1562 20.6432 24.4686L10.2432 34.8687Z" fill="currentColor"/>
<path d="M25.0432 28.8688C24.7308 29.1812 24.7308 29.6877 25.0432 30.0001C25.3556 30.3125 25.8621 30.3125 26.1745 30.0001L32.9849 23.1897L40.4192 30.6241C40.7316 30.9364 41.2381 30.9364 41.5505 30.6241C41.8628 30.3117 41.8628 29.8052 41.5505 29.4928L33.555 21.4973C33.2426 21.1849 32.7315 21.1803 32.4191 21.4927L25.0432 28.8688Z" fill="currentColor"/>
<path d="M16.4089 15.4343C17.5133 15.4343 18.5134 15.8821 19.2372 16.606C19.9611 17.3298 20.4089 18.3298 20.4089 19.4343C20.4089 20.5388 19.9611 21.5388 19.2372 22.2627C18.5134 22.9866 17.5133 23.4343 16.4089 23.4343C15.3043 23.4343 14.3043 22.9866 13.5805 22.2627C12.8566 21.5388 12.4088 20.5388 12.4088 19.4343C12.4088 18.3298 12.8566 17.3298 13.5805 16.606C14.3043 15.8821 15.3043 15.4343 16.4089 15.4343ZM18.1059 17.7372C17.6717 17.303 17.0717 17.0344 16.4089 17.0344C15.746 17.0344 15.146 17.303 14.7117 17.7372C14.2775 18.1715 14.0089 18.7715 14.0089 19.4343C14.0089 20.0971 14.2775 20.6972 14.7117 21.1314C15.146 21.5657 15.746 21.8343 16.4089 21.8343C17.0717 21.8343 17.6717 21.5657 18.1059 21.1314C18.5402 20.6972 18.8088 20.0971 18.8088 19.4343C18.8088 18.7715 18.5402 18.1715 18.1059 17.7372Z" fill="currentColor"/>
</g>
<defs>
<clipPath id="clip0_250_4">
<rect width="51.2" height="51.2" fill="currentColor" transform="translate(0.296875 0.234375)"/>
</clipPath>
</defs>
</svg>
