<svg width="40" height="31" viewBox="0 0 40 31" fill="curentcolor" xmlns="http://www.w3.org/2000/svg">
<g id="Group 4">
<g id="Layer_x0020_1">
<g id="_554253040">
<path id="_554253832" d="M1.99691 0.73432H37.7969C38.1552 0.73432 38.4804 0.880422 38.7156 1.11561C38.9519 1.35257 39.0969 1.67894 39.0969 2.03433V29.6345C39.0969 29.9898 38.9502 30.3147 38.714 30.5516C38.4788 30.7868 38.1551 30.9345 37.7969 30.9345H1.99691C1.63868 30.9345 1.31343 30.7885 1.07816 30.5532C0.842942 30.318 0.696899 29.9928 0.696899 29.6345V2.03432C0.696899 1.67598 0.842942 1.35079 1.07816 1.11557C1.31509 0.879353 1.64143 0.73432 1.99691 0.73432ZM37.4969 2.33436H2.29691V29.3344H37.4969V2.33436Z" fill="white"/>
<path id="_554253304" d="M4.24322 24.8687C3.93085 25.1811 3.93085 25.6876 4.24322 26C4.55559 26.3123 5.06211 26.3123 5.37448 26L15.2089 16.1656L22.6432 23.5999C22.9556 23.9123 23.4621 23.9123 23.7745 23.5999C24.0869 23.2876 24.0869 22.7811 23.7745 22.4687L15.779 14.4732C15.4666 14.1608 14.9555 14.1562 14.6432 14.4686L4.24322 24.8687Z" fill="white"/>
<path id="_554253592" d="M19.0432 18.8688C18.7308 19.1812 18.7308 19.6877 19.0432 20.0001C19.3556 20.3125 19.8621 20.3125 20.1745 20.0001L26.9849 13.1897L34.4192 20.6241C34.7316 20.9364 35.2381 20.9364 35.5505 20.6241C35.8628 20.3117 35.8628 19.8052 35.5505 19.4928L27.555 11.4973C27.2426 11.1849 26.7315 11.1803 26.4191 11.4927L19.0432 18.8688Z" fill="white"/>
<path id="_554253280" d="M10.4089 5.43433C11.5133 5.43433 12.5134 5.88208 13.2372 6.60598C13.9611 7.32981 14.4089 8.32982 14.4089 9.43433C14.4089 10.5388 13.9611 11.5388 13.2372 12.2627C12.5134 12.9866 11.5133 13.4343 10.4089 13.4343C9.30434 13.4343 8.30433 12.9866 7.58049 12.2627C6.8566 11.5388 6.40884 10.5388 6.40884 9.43433C6.40884 8.32982 6.8566 7.32982 7.58049 6.60598C8.30433 5.88208 9.30434 5.43433 10.4089 5.43433ZM12.1059 7.73724C11.6717 7.30301 11.0717 7.03437 10.4089 7.03437C9.74602 7.03437 9.14598 7.30301 8.71175 7.73724C8.27752 8.17147 8.00888 8.7715 8.00888 9.43434C8.00888 10.0971 8.27752 10.6972 8.71175 11.1314C9.14598 11.5657 9.74602 11.8343 10.4089 11.8343C11.0717 11.8343 11.6717 11.5657 12.1059 11.1314C12.5402 10.6972 12.8088 10.0971 12.8088 9.43434C12.8088 8.7715 12.5402 8.17147 12.1059 7.73724Z" fill="white"/>
</g>
</g>
</g>
</svg>
